<!-- icon666.com - MILLIONS OF FREE VECTOR ICONS --><svg id="Layer_1" enable-background="new 0 0 256 256" viewBox="0 0 256 256" xmlns="http://www.w3.org/2000/svg"><g><g><path d="m32.035 201.735c-7.535 0-13.665-6.13-13.665-13.665v-123.776c0-7.535 6.13-13.665 13.665-13.665h191.931c7.535 0 13.665 6.13 13.665 13.665v123.776c0 7.535-6.13 13.665-13.665 13.665z" fill="#cecece"></path><g><path d="m33.036 188.07v-123.776c0-7.535 6.13-13.665 13.665-13.665h-14.666c-7.534 0-13.665 6.13-13.665 13.665v123.776c0 7.535 6.13 13.665 13.665 13.665h14.667c-7.535 0-13.666-6.13-13.666-13.665z" fill="#afafaf"></path></g><g><path d="m222.964 188.07v-123.776c0-7.535-6.13-13.665-13.665-13.665h14.667c7.534 0 13.665 6.13 13.665 13.665v123.776c0 7.535-6.13 13.665-13.665 13.665h-14.667c7.534 0 13.665-6.13 13.665-13.665z" fill="#e2e2e2"></path></g><path d="m229.221 176.071c0 2.891-2.365 5.256-5.256 5.256h-191.93c-2.891 0-5.256-2.365-5.256-5.256v-111.777c0-2.891 2.365-5.256 5.256-5.256h191.931c2.891 0 5.256 2.365 5.256 5.256v111.777z" fill="#63bce7"></path><g><path d="m41.446 176.07v-111.776c0-2.891 2.365-5.256 5.256-5.256h-14.667c-2.891 0-5.256 2.365-5.256 5.256v111.776c0 2.891 2.365 5.256 5.256 5.256h14.667c-2.891 0-5.256-2.365-5.256-5.256z" fill="#6377e7"></path></g><g><path d="m214.554 176.07v-111.776c0-2.891-2.365-5.256-5.256-5.256h14.667c2.891 0 5.256 2.365 5.256 5.256v111.776c0 2.891-2.365 5.256-5.256 5.256h-14.667c2.891 0 5.256-2.365 5.256-5.256z" fill="#63e2e7"></path></g><path d="m89.809 223.893h76.383v9.197h-76.383z" fill="#9e9e9e"></path><path d="m100.67 201.735h54.659v22.158h-54.659z" fill="#cecece"></path><g><path d="m100.67 201.735h14.667v22.158h-14.667z" fill="#afafaf"></path></g><g><path d="m89.809 223.893h14.667v9.197h-14.667z" fill="#707070"></path></g><circle cx="128" cy="191.531" fill="#9e9e9e" r="4.5"></circle></g><circle cx="128" cy="59.526" fill="#f8af23" r="47.59"></circle><g><path d="m95.077 59.526c0-23.789 17.455-43.499 40.256-47.026-2.391-.37-4.839-.563-7.333-.563-26.283 0-47.59 21.307-47.59 47.59s21.307 47.59 47.59 47.59c2.494 0 4.943-.194 7.333-.564-22.801-3.528-40.256-23.238-40.256-47.027z" fill="#f87023"></path></g><g fill="#3f3679"><path d="m136.247 37.595c-2.539-.955-5.371.33-6.326 2.869l-13.037 34.666c-.955 2.539.33 5.371 2.869 6.326.569.214 1.154.316 1.728.316 1.987 0 3.857-1.214 4.598-3.184l13.037-34.666c.954-2.539-.33-5.372-2.869-6.327z"></path><g><path d="m110.557 46.255c-1.919-1.918-5.028-1.918-6.946 0l-9.797 9.797c-1.918 1.918-1.918 5.028 0 6.946l9.797 9.797c.959.959 2.216 1.438 3.473 1.438s2.514-.48 3.473-1.438c1.918-1.918 1.918-5.028 0-6.946l-6.324-6.324 6.324-6.324c1.918-1.917 1.918-5.028 0-6.946z"></path><path d="m162.187 56.053-9.797-9.797c-1.919-1.918-5.028-1.918-6.946 0s-1.918 5.028 0 6.946l6.324 6.324-6.324 6.324c-1.918 1.918-1.918 5.028 0 6.946.959.959 2.216 1.438 3.473 1.438s2.514-.48 3.473-1.438l9.797-9.797c1.918-1.918 1.918-5.028 0-6.946z"></path></g></g><g><path d="m111.866 112.99c.169.472.36.926.57 1.375l-4.227 4.227 8.312 8.312 4.227-4.227c.449.209.908.4 1.375.57v5.98h11.751v-5.98c.467-.169.926-.36 1.375-.57l4.227 4.227 8.312-8.312-4.227-4.227c.209-.449.4-.903.57-1.375h5.98v-11.751h-5.98c-.169-.467-.36-.926-.57-1.375l4.227-4.227-8.312-8.312-4.227 4.232c-.449-.209-.908-.405-1.375-.574v-5.976h-11.751v5.976c-.467.169-.926.365-1.375.574l-4.227-4.232-8.312 8.312 4.227 4.227c-.209.449-.4.908-.57 1.375h-5.976v11.751z" fill="#cecece"></path><circle cx="128" cy="107.115" fill="#707070" r="7.483"></circle></g><g fill="#3f3679"><path d="m27.323 242.563h-18.003c-.828 0-1.5.671-1.5 1.5s.672 1.5 1.5 1.5h18.003c.828 0 1.5-.671 1.5-1.5s-.672-1.5-1.5-1.5z"></path><path d="m246.68 242.563h-18.003c-.828 0-1.5.671-1.5 1.5s.672 1.5 1.5 1.5h18.003c.828 0 1.5-.671 1.5-1.5s-.672-1.5-1.5-1.5z"></path><path d="m218.479 242.563h-180.958c-.828 0-1.5.671-1.5 1.5s.672 1.5 1.5 1.5h180.959c.828 0 1.5-.671 1.5-1.5s-.672-1.5-1.501-1.5z"></path><path d="m9.32 234.591h80.488 76.383 80.488c.828 0 1.5-.671 1.5-1.5s-.672-1.5-1.5-1.5h-78.988v-7.697c0-.829-.672-1.5-1.5-1.5h-9.362v-19.158h67.137c8.361 0 15.164-6.803 15.164-15.165v-123.777c0-8.362-6.803-15.165-15.164-15.165h-47.994c-4.784-22.09-24.47-38.693-47.971-38.693s-43.189 16.604-47.972 38.693h-47.995c-8.361 0-15.164 6.803-15.164 15.165v123.776c0 8.362 6.803 15.165 15.164 15.165h67.137v19.158h-9.362c-.828 0-1.5.671-1.5 1.5v7.697h-78.989c-.828 0-1.5.671-1.5 1.5s.672 1.501 1.5 1.501zm214.646-174.053c2.07 0 3.755 1.685 3.755 3.756v111.776c0 2.071-1.685 3.756-3.755 3.756h-191.932c-2.07 0-3.755-1.685-3.755-3.756v-111.776c0-2.071 1.685-3.756 3.755-3.756h46.893c.358 17.595 10.02 33.547 25.462 42.029v10.425c0 .829.672 1.5 1.5 1.5h4.302l-3.041 3.042c-.586.586-.586 1.536 0 2.121l8.311 8.311c.563.563 1.559.563 2.121 0l3.042-3.042v4.302c0 .829.672 1.5 1.5 1.5h11.752c.828 0 1.5-.671 1.5-1.5v-4.302l3.042 3.042c.281.281.663.439 1.061.439s.779-.158 1.061-.439l8.311-8.311c.586-.585.586-1.535 0-2.121l-3.041-3.042h4.302c.828 0 1.5-.671 1.5-1.5v-10.425c15.442-8.481 25.104-24.434 25.462-42.029zm-110.466 38.266-3.168-3.168 6.189-6.189 3.168 3.168c.445.446 1.122.565 1.694.299.409-.19.825-.367 1.253-.522.593-.215.987-.779.987-1.41v-4.477h8.752v4.477c0 .631.395 1.194.987 1.41.428.155.844.332 1.253.522.572.267 1.249.147 1.694-.299l3.168-3.168 6.189 6.189-3.168 3.168c-.446.446-.565 1.123-.299 1.694.19.409.367.827.523 1.254.216.592.779.986 1.409.986h4.477v8.753h-4.477c-.63 0-1.193.394-1.409.986-.156.427-.333.845-.523 1.254-.267.571-.147 1.249.299 1.694l3.168 3.168-6.189 6.189-3.168-3.168c-.445-.447-1.123-.566-1.694-.299-.409.19-.825.367-1.253.522-.593.215-.987.779-.987 1.41v4.477h-8.752v-4.477c0-.631-.395-1.194-.987-1.41-.428-.155-.844-.332-1.253-.522-.571-.267-1.249-.147-1.694.299l-3.168 3.168-6.189-6.189 3.168-3.168c.446-.446.565-1.123.299-1.694-.19-.409-.367-.827-.523-1.254-.216-.592-.779-.986-1.409-.986h-4.477v-8.753h4.477c.63 0 1.193-.394 1.409-.986.156-.427.333-.845.523-1.254.266-.571.147-1.248-.299-1.694zm14.5-85.367c25.414 0 46.09 20.676 46.09 46.089 0 16.791-9.047 32.092-23.664 40.247-.102-.022-.207-.034-.315-.034h-4.302l3.041-3.042c.586-.586.586-1.536 0-2.121l-8.311-8.311c-.563-.563-1.559-.563-2.121 0l-3.042 3.042v-4.302c0-.829-.672-1.5-1.5-1.5h-11.752c-.828 0-1.5.671-1.5 1.5v4.302l-3.042-3.042c-.281-.281-.663-.439-1.061-.439s-.779.158-1.061.439l-8.311 8.311c-.586.585-.586 1.535 0 2.121l3.041 3.042h-4.302c-.108 0-.213.013-.315.034-14.616-8.155-23.663-23.457-23.663-40.247 0-25.414 20.676-46.089 46.09-46.089zm-108.13 174.633v-123.776c0-6.708 5.457-12.165 12.164-12.165h47.434c-.269 1.773-.434 3.579-.507 5.409h-46.927c-3.725 0-6.755 3.031-6.755 6.756v111.776c0 3.725 3.03 6.756 6.755 6.756h191.932c3.725 0 6.755-3.031 6.755-6.756v-111.776c0-3.725-3.03-6.756-6.755-6.756h-46.927c-.073-1.83-.238-3.635-.507-5.409h47.434c6.707 0 12.164 5.457 12.164 12.165v123.776c0 6.708-5.457 12.165-12.164 12.165h-68.637-54.658-68.637c-6.707 0-12.164-5.457-12.164-12.165zm82.301 15.165h51.658v19.158h-51.658zm-10.862 22.159h9.362 54.658 9.362v6.197h-73.382z"></path><path d="m128 197.531c3.309 0 6-2.691 6-6s-2.691-6-6-6-6 2.691-6 6 2.691 6 6 6zm0-9c1.654 0 3 1.346 3 3s-1.346 3-3 3-3-1.346-3-3 1.346-3 3-3z"></path><path d="m128 116.098c4.953 0 8.983-4.03 8.983-8.983s-4.03-8.983-8.983-8.983-8.983 4.03-8.983 8.983 4.03 8.983 8.983 8.983zm0-14.967c3.299 0 5.983 2.684 5.983 5.983s-2.685 5.983-5.983 5.983-5.983-2.684-5.983-5.983 2.684-5.983 5.983-5.983z"></path><path d="m50.333 101.131h33.667c.828 0 1.5-.671 1.5-1.5s-.672-1.5-1.5-1.5h-33.667c-.828 0-1.5.671-1.5 1.5s.672 1.5 1.5 1.5z"></path><path d="m50.333 114.862h42.042c.828 0 1.5-.671 1.5-1.5s-.672-1.5-1.5-1.5h-42.042c-.828 0-1.5.671-1.5 1.5s.672 1.5 1.5 1.5z"></path><path d="m50.333 128.592h51.852c.828 0 1.5-.671 1.5-1.5s-.672-1.5-1.5-1.5h-51.852c-.828 0-1.5.671-1.5 1.5s.672 1.5 1.5 1.5z"></path><path d="m48.833 140.822c0 .829.672 1.5 1.5 1.5h131.417c.828 0 1.5-.671 1.5-1.5s-.672-1.5-1.5-1.5h-131.417c-.828 0-1.5.671-1.5 1.5z"></path><path d="m48.833 154.552c0 .829.672 1.5 1.5 1.5h152.167c.828 0 1.5-.671 1.5-1.5s-.672-1.5-1.5-1.5h-152.167c-.828 0-1.5.672-1.5 1.5z"></path></g></g></svg>